<svg width="1150" height="1000" viewBox="0 0 1150 1000" fill="none" xmlns="http://www.w3.org/2000/svg">
<g id="undraw_smart_home_28oy 1" clip-path="url(#clip0)">
<path id="Vector" opacity="0.1" d="M668.16 153.077C594.438 149.995 524.217 121.28 457.171 89.8645C390.125 58.4487 323.7 23.6692 251.748 7.00993C205.463 -3.69524 152.533 -5.26664 115.244 24.725C79.35 53.5258 67.7584 103.295 61.5301 149.394C56.8385 184.112 54.0805 220.598 66.9239 253.143C75.8491 275.695 91.6946 294.662 102.655 316.269C140.768 391.475 113.85 484.2 72.511 557.614C53.1747 592.062 30.6531 624.914 15.7031 661.584C0.753063 698.254 -6.16729 740.252 6.91014 777.647C19.8858 814.722 50.7832 842.516 84.2655 862.159C152.258 901.935 232.381 913.327 310.51 919.773C483.458 934.038 657.332 927.863 830.738 921.676C894.914 919.38 959.365 917.06 1022.5 905.09C1057.55 898.448 1093.74 887.903 1119.18 862.429C1151.5 830.092 1159.51 775.339 1137.85 734.753C1101.54 666.753 1001.12 649.86 975.739 576.876C961.766 536.707 976.116 491.959 996.419 454.7C1039.98 374.767 1112.99 304.655 1116.83 213.293C1119.48 150.548 1084.38 87.7038 1030.11 58.0191C973.226 26.898 894.354 30.8142 852.384 82.3267C809.193 135.386 733.252 155.802 668.16 153.077Z" fill="#3F6DD2"/>
<path id="Vector_2" d="M841.23 164.592H358.434C347.305 164.592 338.283 175.475 338.283 188.9V900.167C338.283 913.592 347.305 924.475 358.434 924.475H841.23C852.359 924.475 861.381 913.592 861.381 900.167V188.9C861.381 175.475 852.359 164.592 841.23 164.592Z" fill="#464353"/>
<path id="Vector_3" opacity="0.1" d="M816.256 236.619H383.408V843.191H816.256V236.619Z" fill="white" stroke="white" stroke-miterlimit="10"/>
<path id="Vector_4" d="M599.832 910.037C610.005 910.037 618.252 900.089 618.252 887.817C618.252 875.545 610.005 865.596 599.832 865.596C589.659 865.596 581.411 875.545 581.411 887.817C581.411 900.089 589.659 910.037 599.832 910.037Z" fill="white"/>
<path id="Vector_5" d="M599.832 219.517C598.112 219.505 596.434 218.879 595.009 217.717C593.585 216.555 592.478 214.91 591.827 212.99C591.177 211.069 591.013 208.959 591.356 206.927C591.7 204.894 592.534 203.029 593.755 201.569C594.976 200.108 596.528 199.116 598.216 198.719C599.904 198.322 601.652 198.536 603.238 199.336C604.825 200.136 606.18 201.486 607.131 203.214C608.082 204.942 608.588 206.971 608.584 209.045C608.58 210.426 608.35 211.793 607.908 213.067C607.466 214.341 606.82 215.497 606.007 216.47C605.194 217.442 604.231 218.212 603.171 218.735C602.111 219.258 600.977 219.524 599.832 219.517V219.517Z" fill="white"/>
<path id="Vector_6" d="M599.832 199.138C601.457 199.126 603.047 199.697 604.402 200.778C605.757 201.859 606.815 203.402 607.442 205.21C608.068 207.019 608.235 209.011 607.92 210.934C607.606 212.856 606.824 214.623 605.676 216.009C604.527 217.395 603.062 218.337 601.468 218.716C599.875 219.096 598.223 218.895 596.724 218.139C595.225 217.384 593.946 216.107 593.05 214.473C592.153 212.838 591.68 210.919 591.69 208.959C591.706 206.361 592.569 203.874 594.093 202.036C595.616 200.198 597.678 199.157 599.832 199.138ZM599.832 197.911C598.008 197.911 596.225 198.564 594.71 199.787C593.194 201.011 592.014 202.75 591.318 204.783C590.622 206.817 590.443 209.054 590.803 211.211C591.162 213.368 592.044 215.347 593.337 216.899C594.631 218.45 596.277 219.503 598.066 219.925C599.856 220.347 601.71 220.118 603.392 219.268C605.074 218.417 606.509 216.984 607.515 215.149C608.521 213.313 609.052 211.159 609.042 208.959C609.029 206.023 608.052 203.213 606.327 201.143C604.601 199.073 602.266 197.91 599.832 197.911V197.911Z" fill="white"/>
<path id="Vector_7" d="M593.115 352.927V331.32H606.549V352.927H620.206V320.529H628.938L599.832 288.119L570.736 320.529H579.458V352.927H593.115Z" fill="#3F6DD2"/>
<path id="Vector_8" d="M449.243 453.349V430.024C449.243 428.71 448.81 427.45 448.04 426.521C447.27 425.592 446.226 425.07 445.136 425.07C444.047 425.07 443.003 425.592 442.233 426.521C441.463 427.45 441.03 428.71 441.03 430.024V453.349C439.41 454.445 438.137 456.158 437.41 458.219C436.683 460.281 436.544 462.575 437.013 464.743C437.483 466.911 438.535 468.83 440.004 470.199C441.474 471.568 443.279 472.311 445.136 472.311C446.994 472.311 448.799 471.568 450.269 470.199C451.738 468.83 452.79 466.911 453.26 464.743C453.729 462.575 453.59 460.281 452.863 458.219C452.136 456.158 450.863 454.445 449.243 453.349V453.349ZM443.717 430.024C443.747 429.601 443.907 429.207 444.166 428.92C444.425 428.633 444.764 428.473 445.116 428.473C445.468 428.473 445.807 428.633 446.066 428.92C446.325 429.207 446.486 429.601 446.515 430.024V435.253H443.717V430.024Z" fill="white" stroke="white" stroke-miterlimit="10"/>
<path id="Vector_9" opacity="0.3" d="M746.258 446.965H502.011V450.243H746.258V446.965Z" fill="#3F6DD2"/>
<path id="Vector_10" d="M577.432 456.381C580.99 456.381 583.874 452.902 583.874 448.61C583.874 444.318 580.99 440.839 577.432 440.839C573.874 440.839 570.99 444.318 570.99 448.61C570.99 452.902 573.874 456.381 577.432 456.381Z" fill="#3F6DD2"/>
<path id="Vector_11" d="M577.432 446.965H502.011V450.243H577.432V446.965Z" fill="#3F6DD2"/>
<path id="Vector_12" d="M446.556 567.325C446.511 566.887 446.331 566.485 446.052 566.199C445.773 565.912 445.416 565.762 445.05 565.778C444.716 565.767 444.389 565.892 444.122 566.132C443.854 566.373 443.661 566.715 443.574 567.104L442.088 576.851C442.048 577.098 442.027 577.349 442.027 577.6C442.027 578.577 442.349 579.514 442.922 580.204C443.494 580.895 444.271 581.283 445.081 581.283C445.89 581.283 446.667 580.895 447.239 580.204C447.812 579.514 448.134 578.577 448.134 577.6C448.13 577.298 448.096 576.997 448.032 576.704L446.556 567.325ZM458.117 571.511C457.96 571.357 457.793 571.217 457.619 571.094L451.594 566.085C451.365 565.88 451.085 565.777 450.801 565.795C450.516 565.813 450.246 565.95 450.037 566.183C449.85 566.382 449.73 566.657 449.7 566.956C449.67 567.255 449.732 567.556 449.874 567.804L454.515 574.74C454.604 574.902 454.707 575.054 454.82 575.194C455.277 575.67 455.86 575.932 456.463 575.932C457.067 575.932 457.65 575.67 458.107 575.194C458.324 574.964 458.497 574.68 458.616 574.363C458.735 574.045 458.796 573.701 458.796 573.353C458.796 573.004 458.735 572.66 458.616 572.342C458.497 572.025 458.324 571.741 458.107 571.511H458.117ZM462.188 564.354L456.54 564.108C456.37 564.076 456.197 564.124 456.056 564.244C455.916 564.363 455.819 564.543 455.787 564.747C455.766 564.94 455.798 565.136 455.879 565.305C455.96 565.474 456.085 565.605 456.235 565.68V565.68L461.7 567.546C462.493 567.754 463.379 567.312 463.379 566.318C463.379 565.09 463.084 564.464 462.188 564.342V564.354ZM434.12 565.68C434.269 565.605 434.394 565.474 434.475 565.305C434.556 565.136 434.589 564.94 434.568 564.747C434.533 564.542 434.434 564.362 434.292 564.243C434.15 564.124 433.975 564.076 433.804 564.108L428.166 564.354C427.261 564.477 426.996 565.078 426.996 566.318C426.996 567.3 427.861 567.754 428.645 567.546L434.11 565.667L434.12 565.68ZM438.73 566.073L432.705 571.069C432.532 571.19 432.369 571.33 432.217 571.486C432 571.717 431.827 572 431.708 572.318C431.589 572.635 431.528 572.98 431.528 573.328C431.528 573.676 431.589 574.021 431.708 574.338C431.827 574.656 432 574.939 432.217 575.169C432.665 575.662 433.249 575.935 433.855 575.935C434.461 575.935 435.046 575.662 435.494 575.169C435.615 575.04 435.721 574.892 435.809 574.727L440.45 567.816C440.592 567.569 440.654 567.267 440.624 566.968C440.594 566.669 440.474 566.394 440.287 566.195C440.077 565.948 439.8 565.8 439.507 565.778C439.214 565.755 438.924 565.86 438.689 566.073H438.73ZM445.182 533.711C445.182 533.711 447.828 537.394 447.828 540.5C447.873 541.172 447.803 541.848 447.621 542.486C447.44 543.124 447.152 543.71 446.775 544.207C446.398 544.705 445.94 545.103 445.429 545.378C444.919 545.653 444.367 545.798 443.808 545.804C443.237 545.802 442.672 545.663 442.146 545.394C441.62 545.125 441.143 544.732 440.745 544.238C440.347 543.744 440.035 543.159 439.827 542.517C439.619 541.875 439.519 541.189 439.534 540.5V539.776C437.064 543.396 435.718 547.941 435.728 552.63C435.728 555.645 436.721 558.536 438.488 560.668C440.255 562.8 442.652 563.998 445.152 563.998C447.651 563.998 450.048 562.8 451.815 560.668C453.583 558.536 454.576 555.645 454.576 552.63C454.576 544.969 451.441 535.995 445.142 533.711H445.182ZM444.846 559.738C443.852 559.751 442.894 559.288 442.183 558.45C441.471 557.612 441.064 556.468 441.05 555.269C441.048 554.167 441.385 553.104 441.997 552.285C442.608 551.466 443.449 550.95 444.358 550.837C446.478 550.419 448.409 549.116 449.813 547.154C450.275 549.018 450.508 550.954 450.505 552.9C450.505 554.71 449.909 556.446 448.848 557.726C447.786 559.006 446.347 559.725 444.846 559.725V559.738Z" fill="white" stroke="white" stroke-miterlimit="10"/>
<path id="Vector_13" opacity="0.3" d="M746.258 555.699H502.011V558.977H746.258V555.699Z" fill="#3F6DD2"/>
<path id="Vector_14" d="M634.423 565.115C637.981 565.115 640.865 561.636 640.865 557.344C640.865 553.052 637.981 549.573 634.423 549.573C630.866 549.573 627.981 553.052 627.981 557.344C627.981 561.636 630.866 565.115 634.423 565.115Z" fill="#3F6DD2"/>
<path id="Vector_15" d="M635.044 555.699H502.011V558.977H635.044V555.699Z" fill="#3F6DD2"/>
<path id="Vector_16" d="M439.544 683.449C439.547 684.008 439.732 684.543 440.06 684.938C440.388 685.334 440.831 685.557 441.295 685.56H448.988C449.452 685.557 449.896 685.334 450.223 684.938C450.551 684.543 450.736 684.008 450.739 683.449V681.558H439.544V683.449ZM445.142 645.048C438.17 645.048 432.553 651.37 432.553 659.19C432.567 661.522 433.067 663.811 434.006 665.849C434.945 667.887 436.293 669.607 437.926 670.853V675.432C437.934 675.708 437.987 675.979 438.082 676.23C438.176 676.481 438.311 676.707 438.479 676.895C438.646 677.084 438.842 677.23 439.057 677.327C439.271 677.423 439.499 677.468 439.727 677.458H450.556C450.784 677.468 451.012 677.423 451.227 677.327C451.441 677.23 451.637 677.084 451.805 676.895C451.972 676.707 452.107 676.481 452.202 676.23C452.296 675.979 452.349 675.708 452.357 675.432V670.853C453.994 669.61 455.345 667.891 456.286 665.852C457.227 663.814 457.727 661.523 457.741 659.19C457.741 651.37 452.113 645.048 445.142 645.048Z" fill="white" stroke="white" stroke-miterlimit="10"/>
<path id="Vector_17" opacity="0.3" d="M746.258 663.671H502.011V666.949H746.258V663.671Z" fill="#3F6DD2"/>
<path id="Vector_18" d="M697.521 673.075C701.079 673.075 703.963 669.596 703.963 665.304C703.963 661.012 701.079 657.533 697.521 657.533C693.963 657.533 691.079 661.012 691.079 665.304C691.079 669.596 693.963 673.075 697.521 673.075Z" fill="#3F6DD2"/>
<path id="Vector_19" d="M698.142 663.671H502.011V666.949H698.142V663.671Z" fill="#3F6DD2"/>
<path id="Vector_20" d="M436.746 747.802V771.423H442.343V791.679L453.538 764.671H447.94L453.538 747.802H436.746Z" fill="white" stroke="white" stroke-miterlimit="10"/>
<path id="Vector_21" opacity="0.3" d="M746.258 768.108H502.011V771.386H746.258V768.108Z" fill="#3F6DD2"/>
<path id="Vector_22" d="M577.432 777.512C580.99 777.512 583.874 774.033 583.874 769.741C583.874 765.449 580.99 761.97 577.432 761.97C573.874 761.97 570.99 765.449 570.99 769.741C570.99 774.033 573.874 777.512 577.432 777.512Z" fill="#3F6DD2"/>
<path id="Vector_23" d="M577.432 768.108H502.011V771.386H577.432V768.108Z" fill="#3F6DD2"/>
<path id="Vector_24" d="M350.17 972.279C383.596 972.279 410.693 965.992 410.693 958.235C410.693 950.479 383.596 944.191 350.17 944.191C316.744 944.191 289.647 950.479 289.647 958.235C289.647 965.992 316.744 972.279 350.17 972.279Z" fill="#3F6DD2"/>
<path id="Vector_25" d="M349.162 963.391C353.052 963.391 356.205 958.411 356.205 952.269C356.205 946.126 353.052 941.146 349.162 941.146C345.273 941.146 342.12 946.126 342.12 952.269C342.12 958.411 345.273 963.391 349.162 963.391Z" fill="#3F3D56"/>
<path id="Vector_26" d="M349.162 949.789C353.052 949.789 356.205 944.809 356.205 938.666C356.205 932.523 353.052 927.544 349.162 927.544C345.273 927.544 342.12 932.523 342.12 938.666C342.12 944.809 345.273 949.789 349.162 949.789Z" fill="#3F3D56"/>
<path id="Vector_27" d="M349.162 936.199C353.052 936.199 356.205 931.219 356.205 925.076C356.205 918.933 353.052 913.953 349.162 913.953C345.273 913.953 342.12 918.933 342.12 925.076C342.12 931.219 345.273 936.199 349.162 936.199Z" fill="#3F3D56"/>
<path id="Vector_28" d="M349.162 922.596C353.052 922.596 356.205 917.617 356.205 911.474C356.205 905.331 353.052 900.351 349.162 900.351C345.273 900.351 342.12 905.331 342.12 911.474C342.12 917.617 345.273 922.596 349.162 922.596Z" fill="#3F3D56"/>
<path id="Vector_29" d="M349.162 908.994C353.052 908.994 356.205 904.014 356.205 897.871C356.205 891.728 353.052 886.749 349.162 886.749C345.273 886.749 342.12 891.728 342.12 897.871C342.12 904.014 345.273 908.994 349.162 908.994Z" fill="#3F3D56"/>
<path id="Vector_30" d="M349.162 895.391C353.052 895.391 356.205 890.412 356.205 884.269C356.205 878.126 353.052 873.146 349.162 873.146C345.273 873.146 342.12 878.126 342.12 884.269C342.12 890.412 345.273 895.391 349.162 895.391Z" fill="#3F3D56"/>
<path id="Vector_31" d="M349.162 881.789C353.052 881.789 356.205 876.809 356.205 870.666C356.205 864.524 353.052 859.544 349.162 859.544C345.273 859.544 342.12 864.524 342.12 870.666C342.12 876.809 345.273 881.789 349.162 881.789Z" fill="#3F3D56"/>
<path id="Vector_32" d="M375.531 777.61C376.492 776.128 377.369 774.569 378.157 772.945L359.635 769.262L379.663 769.446C381.581 764.403 382.627 758.941 382.737 753.394C382.847 747.847 382.019 742.332 380.304 737.183L353.457 754.002L378.228 732.027C375.907 727.187 372.785 722.975 369.056 719.654C365.327 716.333 361.07 713.974 356.552 712.724C352.034 711.475 347.351 711.36 342.795 712.389C338.239 713.418 333.907 715.568 330.07 718.705C326.233 721.841 322.972 725.898 320.491 730.621C318.011 735.344 316.363 740.633 315.65 746.158C314.938 751.683 315.177 757.326 316.352 762.735C317.526 768.144 319.612 773.204 322.478 777.598C320.986 779.884 319.696 782.353 318.631 784.964L342.669 800.027L317.044 789.727C315.245 796.142 314.799 802.997 315.748 809.672C316.697 816.347 319.01 822.631 322.478 827.956C318.565 833.962 316.131 841.174 315.456 848.769C314.78 856.364 315.889 864.035 318.656 870.906C321.424 877.776 325.738 883.569 331.105 887.621C336.473 891.674 342.678 893.823 349.01 893.823C355.342 893.823 361.546 891.674 366.914 887.621C372.282 883.569 376.596 877.776 379.363 870.906C382.131 864.035 383.24 856.364 382.564 848.769C381.888 841.174 379.454 833.962 375.541 827.956C380.216 820.779 382.757 811.917 382.757 802.789C382.757 793.662 380.216 784.799 375.541 777.622L375.531 777.61Z" fill="#3F6DD2"/>
<path id="Vector_33" opacity="0.1" d="M315.263 802.777C315.248 811.907 317.791 820.775 322.478 827.944C318.565 833.949 316.132 841.162 315.456 848.757C314.78 856.352 315.889 864.023 318.656 870.893C321.424 877.764 325.738 883.556 331.105 887.609C336.473 891.662 342.678 893.811 349.01 893.811C355.342 893.811 361.546 891.662 366.914 887.609C372.282 883.556 376.596 877.764 379.363 870.893C382.131 864.023 383.24 856.352 382.564 848.757C381.888 841.162 379.454 833.949 375.541 827.944C380.06 821.02 315.263 798.21 315.263 802.777Z" fill="black"/>
<path id="Vector_34" d="M217.706 858.046C269.382 858.046 311.273 848.328 311.273 836.341C311.273 824.354 269.382 814.636 217.706 814.636C166.03 814.636 124.139 824.354 124.139 836.341C124.139 848.328 166.03 858.046 217.706 858.046Z" fill="#3F6DD2"/>
<path id="Vector_35" d="M219.263 844.321C225.277 844.321 230.153 836.62 230.153 827.121C230.153 817.622 225.277 809.922 219.263 809.922C213.249 809.922 208.374 817.622 208.374 827.121C208.374 836.62 213.249 844.321 219.263 844.321Z" fill="#3F3D56"/>
<path id="Vector_36" d="M219.263 823.291C225.277 823.291 230.153 815.591 230.153 806.092C230.153 796.593 225.277 788.892 219.263 788.892C213.249 788.892 208.374 796.593 208.374 806.092C208.374 815.591 213.249 823.291 219.263 823.291Z" fill="#3F3D56"/>
<path id="Vector_37" d="M219.263 802.261C225.277 802.261 230.153 794.561 230.153 785.062C230.153 775.563 225.277 767.862 219.263 767.862C213.249 767.862 208.374 775.563 208.374 785.062C208.374 794.561 213.249 802.261 219.263 802.261Z" fill="#3F3D56"/>
<path id="Vector_38" d="M219.263 781.232C225.277 781.232 230.153 773.531 230.153 764.032C230.153 754.533 225.277 746.833 219.263 746.833C213.249 746.833 208.374 754.533 208.374 764.032C208.374 773.531 213.249 781.232 219.263 781.232Z" fill="#3F3D56"/>
<path id="Vector_39" d="M219.263 760.214C225.277 760.214 230.153 752.514 230.153 743.015C230.153 733.516 225.277 725.815 219.263 725.815C213.249 725.815 208.374 733.516 208.374 743.015C208.374 752.514 213.249 760.214 219.263 760.214Z" fill="#3F3D56"/>
<path id="Vector_40" d="M219.263 739.184C225.277 739.184 230.153 731.484 230.153 721.985C230.153 712.486 225.277 704.785 219.263 704.785C213.249 704.785 208.374 712.486 208.374 721.985C208.374 731.484 213.249 739.184 219.263 739.184Z" fill="#3F3D56"/>
<path id="Vector_41" d="M219.263 718.155C225.277 718.155 230.153 710.454 230.153 700.955C230.153 691.456 225.277 683.756 219.263 683.756C213.249 683.756 208.374 691.456 208.374 700.955C208.374 710.454 213.249 718.155 219.263 718.155Z" fill="#3F3D56"/>
<path id="Vector_42" d="M178.484 557.061C176.993 554.774 175.633 552.366 174.413 549.855L203.051 544.196L172.093 544.478C169.122 536.684 167.5 528.241 167.325 519.665C167.15 511.088 168.426 502.559 171.075 494.598L212.618 520.588L174.332 486.606C177.926 479.137 182.755 472.64 188.52 467.519C194.284 462.398 200.861 458.762 207.84 456.838C214.819 454.914 222.052 454.743 229.088 456.335C236.124 457.927 242.814 461.248 248.741 466.093C254.667 470.937 259.704 477.2 263.539 484.493C267.373 491.786 269.922 499.953 271.028 508.485C272.134 517.018 271.773 525.733 269.967 534.09C268.161 542.447 264.949 550.266 260.531 557.061C262.851 560.617 264.844 564.466 266.474 568.54L229.318 591.866L268.937 575.82C271.717 585.736 272.404 596.331 270.936 606.648C269.469 616.964 265.892 626.677 260.531 634.907C266.586 644.193 270.353 655.347 271.401 667.094C272.449 678.84 270.735 690.706 266.456 701.333C262.177 711.96 255.506 720.921 247.204 727.19C238.903 733.459 229.307 736.783 219.513 736.783C209.719 736.783 200.122 733.459 191.821 727.19C183.52 720.921 176.848 711.96 172.569 701.333C168.29 690.706 166.577 678.84 167.625 667.094C168.672 655.347 172.439 644.193 178.494 634.907C171.262 623.809 167.33 610.101 167.33 595.984C167.33 581.867 171.262 568.16 178.494 557.061H178.484Z" fill="#3F6DD2"/>
<path id="Vector_43" opacity="0.1" d="M271.726 595.978C271.734 610.105 267.79 623.822 260.531 634.907C266.586 644.193 270.353 655.347 271.401 667.094C272.449 678.84 270.735 690.706 266.456 701.333C262.177 711.96 255.506 720.921 247.204 727.19C238.903 733.459 229.307 736.783 219.513 736.783C209.719 736.783 200.122 733.459 191.821 727.19C183.52 720.921 176.848 711.96 172.569 701.333C168.29 690.706 166.577 678.84 167.625 667.094C168.672 655.347 172.439 644.193 178.494 634.907C171.492 624.19 271.726 588.919 271.726 595.978Z" fill="black"/>
<path id="Vector_44" opacity="0.1" d="M897.611 1000C953.255 1000 998.363 988.458 998.363 974.219C998.363 959.981 953.255 948.438 897.611 948.438C841.967 948.438 796.858 959.981 796.858 974.219C796.858 988.458 841.967 1000 897.611 1000Z" fill="#3F6DD2"/>
<path id="Vector_45" d="M860.21 977.19C860.272 977.818 860.402 978.433 860.597 979.019C861.154 981.283 862.331 983.252 863.935 984.605C864.758 985.179 865.651 985.593 866.581 985.833C872.819 987.638 879.302 987.061 885.673 987.834C892.044 988.607 898.791 990.608 905.081 988.448C906.587 987.932 908.134 986.987 908.744 985.133C908.784 985.018 908.815 984.899 908.836 984.777C913.405 985.489 917.995 986.005 922.371 984.519C923.867 984.004 925.424 983.058 926.035 981.205C926.269 980.245 926.342 979.24 926.249 978.246C926.065 973.078 925.862 967.835 924.559 962.937C924.073 961.171 923.491 959.444 922.819 957.769C921.822 955.191 920.736 952.674 919.562 950.219L919.206 949.421C920.061 949.875 920.896 950.366 921.72 950.894C925.5 936.717 928.255 922.173 929.953 907.422C932.059 889.923 931.632 872.116 928.691 854.793C927.782 849.014 927.441 843.125 927.673 837.25C928.091 825.55 930.34 814.108 932.579 802.74C933.719 797.011 934.855 791.245 935.988 785.443C937.603 777.258 939.224 769.041 940.853 760.791C941.931 755.328 943.01 749.742 942.674 744.12C942.44 741.044 941.935 738.007 941.168 735.059C940.019 730.303 938.59 725.65 936.894 721.138C937.392 721.251 937.908 721.123 938.329 720.782C938.664 720.358 938.887 719.824 938.97 719.247L941.534 708.1C943.336 700.292 945.137 692.423 945.605 684.32C946.165 675.15 945.015 665.906 944.771 656.772C944.455 644.839 945.656 632.869 945.015 620.961C944.873 618.383 944.649 615.817 944.394 613.264C944.506 611.913 944.537 610.563 944.567 609.212C944.73 602.558 944.669 595.917 942.644 589.779C941.254 585.399 938.942 581.532 935.937 578.558C936.029 578.005 936.13 577.465 936.222 576.913L938.359 564.636C940.72 551.021 943.102 537.075 941.748 523.24C940.537 510.963 935.764 498.49 927.684 491.934L927.612 491.873L926.747 491.21L926.595 491.1C926.33 490.903 926.055 490.719 925.78 490.547L925.577 490.412C925.251 490.191 924.905 489.982 924.559 489.798C921.965 488.39 919.227 487.403 916.418 486.864L915.298 486.655C914.182 486.443 913.058 486.304 911.93 486.238H910.8C909.674 486.221 908.548 486.304 907.431 486.484C907.014 486.484 906.607 486.631 906.19 486.729L904.969 487.036C902.553 487.87 900.091 488.489 897.6 488.89C897.132 488.89 896.654 488.963 896.186 488.976C894.771 488.976 893.357 488.865 891.932 488.767C891.23 488.767 890.517 488.693 889.815 488.693C888.644 488.673 887.474 488.8 886.324 489.074C884.337 489.623 882.465 490.664 880.829 492.131C879.622 493.192 878.504 494.392 877.491 495.716C876.668 496.786 875.893 497.909 875.17 499.079C874.835 499.619 874.509 500.172 874.153 500.749L873.685 501.621C873.389 502.222 873.104 502.848 872.84 503.437C872.449 504.359 872.109 505.31 871.822 506.286C871.013 508.827 870.853 511.602 871.364 514.253C871.487 514.815 871.637 515.369 871.812 515.91C869.958 520.319 868.999 525.196 869.013 530.139C869.013 543.643 875.995 555.036 885.592 558.793C886.762 561.395 888.187 564.71 889.377 567.926C886.852 570.105 884.653 572.787 882.874 575.857C876.911 575.452 871.028 581.185 869.135 588.416C868.444 591.199 868.198 594.116 868.413 597.009C867.171 603.05 867.11 609.581 866.998 615.891C866.825 625.835 866.398 635.754 865.981 645.686C865.563 655.618 865.136 665.464 864.708 675.359C864.586 678.194 864.464 681.043 864.159 683.854C862.663 684.333 862.592 686.8 862.765 688.765C863.233 694.007 863.996 699.31 864.485 704.577C863.819 707.825 863.678 711.196 864.067 714.508L864.932 714.975C864.881 718.367 864.471 721.738 863.711 725.005C863.61 725.599 863.386 726.152 863.06 726.613C863.49 726.392 863.947 726.256 864.413 726.208C863.121 731.34 862.093 736.594 860.577 741.64C859.793 744.242 858.877 746.796 858.205 749.46C857.617 751.989 857.141 754.554 856.781 757.145C856.525 758.636 856.345 760.145 856.241 761.663C856.089 764.576 856.494 767.492 857.424 770.187C858.354 772.881 859.784 775.282 861.604 777.205C861.604 778.212 861.543 779.206 861.543 780.213C861.543 787.394 862.419 794.552 862.205 801.721C861.92 811.383 860.485 820.529 860.444 830.203C860.312 856.966 866.398 883.127 873.542 908.282C876.371 918.25 879.373 928.125 882.549 937.905C884.421 943.7 886.538 950.182 884.523 955.866C885.205 955.534 885.877 955.227 886.558 954.933C885.498 958.145 883.913 961.068 881.897 963.526C878.739 967.276 874.621 969.626 870.214 970.193C868.087 970.475 865.899 970.328 863.874 971.224C861.849 972.12 860.007 974.477 860.21 977.19ZM886.223 838.318C888.433 824.482 892.665 811.23 898.72 799.18L898.781 799.978C899.107 803.931 899.707 807.884 900.358 811.825C901.722 820.124 903.32 828.41 903.076 836.746C902.82 845.582 903.25 854.426 904.358 863.165C904.693 866.585 905.377 869.941 906.393 873.159C907.065 875.074 907.94 876.841 908.429 878.855C908.955 881.155 909.229 883.528 909.243 885.914C910.145 905.584 909.148 925.314 906.271 944.706C905.569 944.706 905.121 944.841 905.111 944.952C904.685 948.27 903.742 951.461 902.333 954.356L902.211 954.086C901.966 953.57 901.712 952.981 901.447 952.392L902.292 952.551C899.961 946.486 900.175 939.415 900.073 932.663C899.871 923.501 899.099 914.37 897.763 905.348C895.764 891.692 892.291 878.41 887.434 865.842C886.434 863.196 885.749 860.394 885.398 857.518C884.753 851.109 885.032 844.613 886.223 838.318ZM928.203 692.227C927.82 691.602 927.409 691.003 926.971 690.434C925.953 689.121 924.732 687.598 925.038 685.806C925.192 685.102 925.486 684.453 925.892 683.915C926.71 682.68 927.616 681.534 928.6 680.49L928.925 680.146C928.681 684.149 928.44 688.163 928.203 692.19V692.227Z" fill="url(#paint0_linear)"/>
<path id="Vector_46" d="M943.041 603.123L944.16 613.546C944.537 617.082 944.913 620.605 945.117 624.153C945.799 635.963 944.537 647.822 944.862 659.657C945.127 668.766 946.328 677.863 945.748 686.96C945.229 694.989 943.336 702.797 941.443 710.531L938.756 721.58C938.664 722.157 938.43 722.688 938.085 723.102C937.567 723.472 936.952 723.59 936.365 723.433L924.437 722.206C925.2 717.983 926.045 713.612 926.473 709.279C926.798 705.89 926.992 702.477 927.195 699.065C927.826 688.433 928.549 677.802 929.231 667.145L930.503 648.485C931.042 640.383 931.602 632.243 933.291 624.374C934.977 616.399 938.334 609.081 943.041 603.123V603.123Z" fill="#3F6DD2"/>
<path id="Vector_47" opacity="0.1" d="M943.041 603.123L944.16 613.546C944.537 617.082 944.913 620.605 945.117 624.153C945.799 635.963 944.537 647.822 944.862 659.657C945.127 668.766 946.328 677.863 945.748 686.96C945.229 694.989 943.336 702.797 941.443 710.531L938.756 721.58C938.664 722.157 938.43 722.688 938.085 723.102C937.567 723.472 936.952 723.59 936.365 723.433L924.437 722.206C925.2 717.983 926.045 713.612 926.473 709.279C926.798 705.89 926.992 702.477 927.195 699.065C927.826 688.433 928.549 677.802 929.231 667.145L930.503 648.485C931.042 640.383 931.602 632.243 933.291 624.374C934.977 616.399 938.334 609.081 943.041 603.123V603.123Z" fill="black"/>
<path id="Vector_48" d="M921.791 957.977C922.491 959.639 923.103 961.353 923.623 963.109C924.987 967.958 925.19 973.163 925.394 978.283C925.484 979.269 925.408 980.267 925.17 981.217C924.58 983.058 922.89 983.991 921.313 984.495C914.708 986.643 907.747 984.63 900.959 983.893C894.171 983.157 887.464 983.697 880.91 981.917C879.942 981.691 879.007 981.298 878.132 980.75C876.472 979.447 875.233 977.497 874.621 975.226C874.423 974.644 874.29 974.033 874.224 973.409C874.01 970.708 875.954 968.376 878.071 967.492C880.188 966.608 882.498 966.743 884.727 966.473C889.317 965.906 893.624 963.529 896.98 959.709C900.336 955.889 902.554 950.84 903.289 945.345C903.371 944.756 914.321 945.112 915.502 945.873C916.845 946.769 917.659 948.991 918.423 950.501C919.623 952.932 920.746 955.424 921.791 957.977Z" fill="#A26565"/>
<path id="Vector_49" opacity="0.1" d="M921.791 957.977C922.491 959.639 923.103 961.353 923.623 963.109C924.987 967.958 925.19 973.163 925.394 978.283C925.484 979.269 925.408 980.267 925.17 981.217C924.58 983.058 922.89 983.991 921.313 984.495C914.708 986.643 907.747 984.63 900.959 983.893C894.171 983.157 887.464 983.697 880.91 981.917C879.942 981.691 879.007 981.298 878.132 980.75C876.472 979.447 875.233 977.497 874.621 975.226C874.423 974.644 874.29 974.033 874.224 973.409C874.01 970.708 875.954 968.376 878.071 967.492C880.188 966.608 882.498 966.743 884.727 966.473C889.317 965.906 893.624 963.529 896.98 959.709C900.336 955.889 902.554 950.84 903.289 945.345C903.371 944.756 914.321 945.112 915.502 945.873C916.845 946.769 917.659 948.991 918.423 950.501C919.623 952.932 920.746 955.424 921.791 957.977Z" fill="black"/>
<path id="Vector_50" d="M903.625 961.881C904.33 963.537 904.942 965.247 905.457 967.001C906.831 971.911 907.034 977.055 907.228 982.175C907.323 983.161 907.246 984.16 907.004 985.109C906.424 986.95 904.734 987.883 903.157 988.399C896.552 990.535 889.581 988.521 882.803 987.785C876.025 987.048 869.298 987.588 862.754 985.808C861.782 985.571 860.845 985.157 859.976 984.581C858.314 983.28 857.074 981.33 856.465 979.056C856.268 978.474 856.134 977.863 856.068 977.239C855.854 974.551 857.798 972.206 859.915 971.322C862.032 970.438 864.342 970.585 866.571 970.303C871.159 969.735 875.464 967.359 878.82 963.542C882.175 959.724 884.395 954.679 885.134 949.187C885.215 948.598 896.165 948.942 897.346 949.703C898.7 950.599 899.514 952.821 900.277 954.331C901.437 956.823 902.577 959.328 903.625 961.881Z" fill="#A26565"/>
<path id="Vector_51" d="M856.272 831.467C856.129 857.997 862.52 883.925 870.021 908.81C872.992 918.68 876.144 928.464 879.475 938.163C881.45 943.908 883.678 950.292 881.561 955.964C887.668 953.165 893.876 951.52 900.297 952.809C897.855 946.793 898.089 939.796 897.977 933.166C897.77 924.081 896.967 915.029 895.575 906.097C893.42 892.501 889.725 879.328 884.594 866.947C883.557 864.336 882.841 861.557 882.467 858.697C881.633 852.387 882.284 845.905 883.373 839.656C885.716 825.854 890.168 812.698 896.501 800.862L896.562 801.648C896.942 805.596 897.493 809.517 898.211 813.396C899.646 821.609 901.325 829.835 901.071 838.097C900.805 846.857 901.255 855.628 902.414 864.283C902.787 867.681 903.523 871.007 904.602 874.177C905.304 876.08 906.22 877.861 906.77 879.837C907.32 882.111 907.608 884.466 907.625 886.835C908.439 906.809 907.625 927.09 904.246 946.671C909.915 946.131 915.583 948.107 920.651 951.176C924.614 937.159 927.509 922.736 929.302 908.085C931.51 890.759 931.062 873.09 927.979 855.959C927.018 850.246 926.659 844.409 926.91 838.588C927.348 826.986 929.709 815.643 932.06 804.373L935.642 787.186C937.338 779.001 939.034 770.854 940.731 762.743C941.86 757.329 943 751.792 942.644 746.219C942.395 743.161 941.863 740.147 941.056 737.232C938.515 727.32 934.715 717.944 929.79 709.438C910.179 710.764 890.334 708.554 870.764 706.737C869.815 706.511 868.83 706.712 867.996 707.302C867.329 708.12 866.931 709.202 866.876 710.347L859.518 760.681C858.344 767.678 857.663 774.783 857.483 781.919C857.483 789.04 858.399 796.135 858.175 803.244C857.819 812.819 856.312 821.879 856.272 831.467Z" fill="#454B69"/>
<path id="Vector_52" opacity="0.1" d="M896.593 801.648C896.973 805.596 897.523 809.517 898.242 813.396C902.506 804.496 907.106 795.816 911.034 786.695C912.052 784.35 913.008 781.968 913.975 779.587L916.876 772.466C917.415 771.128 917.954 769.79 918.443 768.427C919.238 766.47 919.849 764.411 920.265 762.289C918.84 761.97 915.319 766.61 914.26 767.826C912.101 770.404 910.063 773.126 908.154 775.977C905.801 779.143 903.638 782.507 901.681 786.044C899.254 790.854 897.533 796.132 896.593 801.648V801.648Z" fill="black"/>
<path id="Vector_53" d="M880.208 557.454C880.208 557.454 891.097 578.386 889.082 582.769C887.067 587.151 923.379 578.877 923.379 578.877C923.379 578.877 903.605 557.945 905.63 549.18C907.655 540.414 880.208 557.454 880.208 557.454Z" fill="#EE8E9E"/>
<path id="Vector_54" d="M889.886 563.789C903.482 563.789 914.504 550.493 914.504 534.092C914.504 517.691 903.482 504.395 889.886 504.395C876.29 504.395 865.268 517.691 865.268 534.092C865.268 550.493 876.29 563.789 889.886 563.789Z" fill="#EE8E9E"/>
<path id="Vector_55" d="M879.842 579.405C882.474 574.979 886.05 571.496 890.192 569.326C892.576 568.296 895.041 567.563 897.55 567.141L907.37 565.054C909.772 564.538 912.347 564.059 914.586 565.25C915.718 565.95 916.749 566.866 917.639 567.963C921.048 571.781 924.356 575.967 928.64 578.177C929.811 578.779 931.032 579.221 932.202 579.822C936.996 582.278 940.578 587.507 942.603 593.327C944.74 599.391 944.801 605.984 944.639 612.576C944.641 614.852 944.454 617.122 944.079 619.353C943.589 621.477 942.966 623.554 942.216 625.565C940.871 629.865 939.742 634.26 938.838 638.725C936.293 650.47 934.177 662.337 932.487 674.327C932.344 676.045 931.926 677.713 931.256 679.238C930.307 680.765 929.159 682.096 927.857 683.179C926.824 684.202 925.873 685.34 925.017 686.579C924.593 687.102 924.281 687.743 924.112 688.445C923.796 690.213 925.129 691.735 926.147 693.024C928.337 695.72 929.92 699.046 930.747 702.686C931.257 703.433 931.519 704.383 931.48 705.35C931.268 706.023 931.188 706.746 931.246 707.462C931.446 708.113 931.762 708.704 932.172 709.193C932.641 709.931 932.975 710.781 933.15 711.688C933.326 712.594 933.339 713.534 933.189 714.447C925.561 718.445 917.397 720.749 909.09 721.248C907.055 721.371 905.02 721.371 902.984 721.666C901.539 721.887 900.114 722.243 898.669 722.451C896.572 722.689 894.464 722.755 892.359 722.648C881.399 722.378 870.123 722.046 860.057 716.804C859.111 710.58 861.157 704.233 862.439 698.095C864.474 688.273 864.983 678.219 866.51 668.312C867.527 661.547 869.054 654.881 869.919 648.068C870.784 641.254 870.988 634.195 869.431 627.566C868.057 621.698 867.639 615.707 866.215 609.851C864.79 603.995 863.792 597.648 865.4 591.853C867.395 584.708 873.573 579 879.842 579.405Z" fill="#3F6DD2"/>
<path id="Vector_56" d="M867.751 518.341C866.55 513.075 868.911 507.587 871.72 503.302C874.773 498.699 878.661 494.549 883.434 493.395C887.312 492.45 891.331 493.592 895.28 493.211C898.771 492.88 902.129 491.357 905.6 490.756C908.748 490.346 911.93 490.491 915.044 491.185C917.999 491.715 920.888 492.689 923.643 494.083C934.126 499.693 940.262 513.517 941.687 527.229C943.112 540.942 940.669 554.766 938.135 568.258L935.886 580.461C933.546 593.167 931.205 605.922 930.584 618.911C929.963 631.899 931.123 645.232 935.55 657.091C921.234 647.814 910.141 632.664 904.277 614.381C902.689 609.36 901.508 604.142 899.738 599.207C898.221 594.959 896.277 590.932 894.934 586.599C893.416 581.708 892.687 576.511 892.787 571.29C892.868 567.362 893.408 563.458 893.316 559.529C893.224 555.601 892.39 551.512 890.141 548.664C888.105 546.148 885.307 544.981 882.732 543.349C878.679 540.837 875.137 537.273 872.362 532.913C870.743 530.36 870.652 529.231 870.245 526.333C869.838 523.436 868.382 521.128 867.751 518.341Z" fill="#454B69"/>
<path id="Vector_57" d="M867.721 741.419C867.466 744.476 867.924 747.557 867.375 750.589C866.957 752.848 865.991 754.886 865.421 757.096C864.857 759.647 864.566 762.275 864.556 764.916C864.474 767.126 864.617 769.827 866.245 770.858C866.957 771.312 867.812 771.312 868.555 771.705C869.298 772.098 869.929 773.166 869.502 774.001C869.074 774.836 868.342 774.7 867.67 774.86C866.998 775.02 866.276 775.854 866.652 776.53C866.805 776.751 867.012 776.909 867.242 776.984C867.922 777.236 868.567 777.609 869.156 778.089C869.444 778.342 869.669 778.684 869.807 779.08C869.945 779.476 869.991 779.91 869.939 780.335C869.898 780.539 869.82 780.728 869.709 780.89C869.599 781.051 869.46 781.18 869.302 781.268C869.145 781.355 868.973 781.398 868.799 781.394C868.626 781.39 868.455 781.339 868.301 781.244C868.599 782.014 868.762 782.85 868.779 783.699C866.174 785.05 863.253 783.282 860.811 781.575C859.754 780.865 858.735 780.077 857.757 779.218C855.782 777.388 854.207 775.003 853.171 772.27C852.135 769.538 851.669 766.541 851.814 763.541C851.93 762.034 852.124 760.538 852.394 759.06C852.77 756.486 853.269 753.941 853.89 751.436C854.592 748.797 855.549 746.28 856.373 743.69C858.124 738.178 859.253 732.408 860.841 726.822C860.947 726.243 861.217 725.726 861.604 725.361C861.954 725.153 862.345 725.064 862.734 725.103C864.516 724.99 866.302 725.189 868.036 725.692C869.054 726.061 870.794 726.92 871.273 728.148C871.751 729.375 870.988 730.407 870.53 731.426C869.067 734.506 868.113 737.9 867.721 741.419V741.419Z" fill="#EE8E9E"/>
<path id="Vector_58" opacity="0.1" d="M869.38 592.246C868.857 592.892 868.418 593.628 868.077 594.431C864.576 602.104 864.535 611.275 864.373 620.028C864.189 629.849 863.742 639.67 863.294 649.553L861.961 679.017C861.828 681.828 861.706 684.64 861.37 687.426C859.803 687.905 859.742 690.36 859.915 692.337C861.045 704.343 863.843 716.706 860.933 728.258C860.821 728.851 860.586 729.4 860.251 729.854C861.729 729.295 863.31 729.27 864.8 729.78C866.255 730.149 867.66 730.799 869.125 731.205C870.977 731.708 873.074 731.929 874.336 733.66C875.766 728.471 876.905 723.172 877.745 717.799C878.437 712.888 878.631 707.83 880.279 703.288C880.941 701.458 881.836 699.764 882.65 698.009C886.915 688.826 889.011 678.452 891.057 668.214C891.975 663.36 892.195 658.352 891.708 653.408C891.412 651.153 891.242 648.877 891.199 646.594C891.323 644.186 891.585 641.79 891.983 639.425C892.847 632.483 892.441 625.397 890.792 618.665C889.265 612.416 887.922 605.836 884.686 600.582C881.45 595.327 874.784 592.332 869.38 592.246Z" fill="black"/>
<path id="Vector_59" d="M868.169 591.264C867.646 591.914 867.207 592.655 866.866 593.462C863.365 601.122 863.324 610.305 863.161 619.058C862.978 628.879 862.531 638.701 862.083 648.522L860.75 677.986C860.617 680.797 860.495 683.608 860.159 686.395C858.592 686.874 858.531 689.329 858.714 691.306C859.834 703.312 862.632 715.662 859.732 727.227C859.62 727.82 859.385 728.369 859.05 728.823C860.528 728.264 862.109 728.239 863.599 728.749C865.054 729.118 866.459 729.768 867.924 730.161C869.777 730.677 871.873 730.885 873.135 732.616C874.569 727.425 875.708 722.121 876.544 716.743C877.236 711.832 877.43 706.786 879.078 702.244C879.794 700.437 880.586 698.675 881.45 696.965C885.724 687.782 887.81 677.396 889.856 667.158C890.774 662.304 890.994 657.296 890.507 652.352C889.741 647.724 889.834 642.948 890.782 638.369C891.647 631.432 891.24 624.35 889.591 617.622C888.065 611.373 886.721 604.793 883.485 599.538C880.249 594.284 873.573 591.362 868.169 591.264Z" fill="#3F6DD2"/>
<g id="Group" opacity="0.1">
<path id="Vector_60" opacity="0.1" d="M871.72 503.302C874.773 498.699 878.661 494.549 883.434 493.395C887.312 492.45 891.331 493.592 895.28 493.211C898.771 492.88 902.129 491.357 905.6 490.756C908.748 490.346 911.93 490.491 915.044 491.185C917.999 491.715 920.888 492.689 923.643 494.083C925.132 494.887 926.553 495.861 927.887 496.992C925.435 495.843 922.886 495.02 920.285 494.537C917.174 493.842 913.996 493.697 910.851 494.107C907.37 494.647 904.022 496.157 900.521 496.489C896.583 496.87 892.563 495.74 888.675 496.673C883.902 497.827 879.994 501.989 876.972 506.593C874.153 510.865 871.802 516.352 872.992 521.631C873.623 524.406 875.089 526.837 875.486 529.697C875.883 532.557 875.984 533.724 877.613 536.277C879.701 539.552 882.225 542.386 885.083 544.662C884.299 544.22 883.495 543.778 882.732 543.299C878.679 540.788 875.137 537.224 872.362 532.864C870.743 530.311 870.652 529.181 870.245 526.284C869.838 523.387 868.382 521.005 867.751 518.218C866.55 513.075 868.912 507.587 871.72 503.302Z" fill="black"/>
<path id="Vector_61" opacity="0.1" d="M890.141 548.738C889.719 548.211 889.259 547.73 888.767 547.302C891.118 548.677 893.591 549.88 895.392 552.212C897.641 555.048 898.445 559.149 898.567 563.077C898.689 567.006 898.109 570.909 898.038 574.826C897.938 580.051 898.667 585.251 900.185 590.147C901.529 594.48 903.473 598.495 904.989 602.755C906.75 607.665 907.93 612.895 909.518 617.916C914.605 633.768 923.639 647.33 935.377 656.735C935.438 656.894 935.489 657.066 935.55 657.226C921.234 647.949 910.141 632.799 904.277 614.516C902.689 609.495 901.508 604.277 899.738 599.342C898.221 595.094 896.277 591.068 894.934 586.734C893.416 581.843 892.687 576.647 892.787 571.425C892.868 567.497 893.408 563.593 893.316 559.664C893.224 555.736 892.39 551.562 890.141 548.738Z" fill="black"/>
</g>
<path id="Vector_62" opacity="0.1" d="M199.316 149.504H134.489C129.346 149.504 125.177 154.533 125.177 160.737V209.475C125.177 215.679 129.346 220.708 134.489 220.708H199.316C204.459 220.708 208.628 215.679 208.628 209.475V160.737C208.628 154.533 204.459 149.504 199.316 149.504Z" fill="#3F6DD2"/>
<path id="Vector_63" opacity="0.1" d="M282.768 274.725H217.94C212.797 274.725 208.628 279.754 208.628 285.958V334.696C208.628 340.9 212.797 345.929 217.94 345.929H282.768C287.911 345.929 292.08 340.9 292.08 334.696V285.958C292.08 279.754 287.911 274.725 282.768 274.725Z" fill="#3F6DD2"/>
<path id="Vector_64" opacity="0.1" d="M976.838 161.781H912.011C906.868 161.781 902.699 166.81 902.699 173.014V221.752C902.699 227.955 906.868 232.985 912.011 232.985H976.838C981.981 232.985 986.15 227.955 986.15 221.752V173.014C986.15 166.81 981.981 161.781 976.838 161.781Z" fill="#3F6DD2"/>
</g>
<defs>
<linearGradient id="paint0_linear" x1="900.989" y1="989.356" x2="900.989" y2="486.14" gradientUnits="userSpaceOnUse">
<stop stop-color="#808080" stop-opacity="0.25"/>
<stop offset="0.54" stop-color="#808080" stop-opacity="0.12"/>
<stop offset="1" stop-color="#808080" stop-opacity="0.1"/>
</linearGradient>
<clipPath id="clip0">
<rect width="1150" height="1000" fill="white"/>
</clipPath>
</defs>
</svg>
