<svg width="80" height="15" viewBox="0 0 80 15" fill="none" xmlns="http://www.w3.org/2000/svg">
<g id="wavesOpacity 1" clip-path="url(#clip0)">
<path id="Vector" opacity="0.5" d="M0 15V13.2751C0.78 10.972 0.0319399 12.3652 1.23494 10.708C4.33814 6.42899 9.10592 5.16996 12.6807 7.28871C14.5497 8.39609 15.8875 8.08297 17.6623 9.58093C20.1175 11.6539 22.746 14.5996 25.512 15C27.6876 15.3109 28.9404 13.9594 30.6024 11.5439C32.5086 8.77381 34.66 7.67056 37.1386 6.47045C39.565 5.29324 43.0043 6.94455 45.2711 8.86365C47.5379 10.7827 48.5185 6.84685 51.0241 7.28871C54.6079 7.92695 59.7984 8.21171 63.1356 6.47045C64.9476 5.52563 66.6756 5.79729 68.361 7.28871C69.7068 8.47682 71.241 10.2268 72 12.6609V15H0Z" fill="#4A90E2"/>
<path id="Vector_2" d="M0 14.8125V14.1087C9.99533 7.43749 20.9393 5.89749 31.722 9.49124C34.5887 10.4462 37.3373 12.0062 40.2293 12.7987C44.1627 13.8775 47.728 11.2687 51.2667 8.37374C55.1953 5.15999 59.0667 2.90748 63.4133 3.56249C69.182 4.43749 74.9107 9.27624 80 14.1637V14.8125H0Z" fill="#4795F0" fill-opacity="0.9"/>
</g>
<defs>
<clipPath id="clip0">
<rect width="80" height="15" fill="white" transform="matrix(1 0 0 -1 0 15)"/>
</clipPath>
</defs>
</svg>
